<?xml version="1.0" standalone="no"?><svg xmlns="http://www.w3.org/2000/svg" viewBox="0 0 1440 320"><path fill="#7342d61a" fill-opacity="1" d="M0,96L21.8,90.7C43.6,85,87,75,131,64C174.5,53,218,43,262,32C305.5,21,349,11,393,53.3C436.4,96,480,192,524,229.3C567.3,267,611,245,655,208C698.2,171,742,117,785,117.3C829.1,117,873,171,916,181.3C960,192,1004,160,1047,149.3C1090.9,139,1135,149,1178,181.3C1221.8,213,1265,267,1309,240C1352.7,213,1396,107,1418,53.3L1440,0L1440,320L1418.2,320C1396.4,320,1353,320,1309,320C1265.5,320,1222,320,1178,320C1134.5,320,1091,320,1047,320C1003.6,320,960,320,916,320C872.7,320,829,320,785,320C741.8,320,698,320,655,320C610.9,320,567,320,524,320C480,320,436,320,393,320C349.1,320,305,320,262,320C218.2,320,175,320,131,320C87.3,320,44,320,22,320L0,320Z"></path></svg>