<?xml version="1.0" standalone="no"?><svg xmlns="http://www.w3.org/2000/svg" viewBox="0 0 1440 320"><path fill="#7342d61a" fill-opacity="1" d="M0,192L26.7,176C53.3,160,107,128,160,106.7C213.3,85,267,75,320,101.3C373.3,128,427,192,480,186.7C533.3,181,587,107,640,69.3C693.3,32,747,32,800,42.7C853.3,53,907,75,960,117.3C1013.3,160,1067,224,1120,250.7C1173.3,277,1227,267,1280,229.3C1333.3,192,1387,128,1413,96L1440,64L1440,0L1413.3,0C1386.7,0,1333,0,1280,0C1226.7,0,1173,0,1120,0C1066.7,0,1013,0,960,0C906.7,0,853,0,800,0C746.7,0,693,0,640,0C586.7,0,533,0,480,0C426.7,0,373,0,320,0C266.7,0,213,0,160,0C106.7,0,53,0,27,0L0,0Z"></path></svg>